<?xml version="1.0" encoding="UTF-8" standalone="no"?>
<!DOCTYPE svg PUBLIC "-//W3C//DTD SVG 1.1//EN"
 "http://www.w3.org/Graphics/SVG/1.1/DTD/svg11.dtd">
<!-- Generated by graphviz version 3.0.0 (20220226.1711)
 -->
<!-- Pages: 1 -->
<svg width="1364pt" height="476pt"
 viewBox="0.00 0.00 1363.50 476.00" xmlns="http://www.w3.org/2000/svg" xmlns:xlink="http://www.w3.org/1999/xlink">
<g id="graph0" class="graph" transform="scale(1 1) rotate(0) translate(4 472)">
<polygon fill="white" stroke="transparent" points="-4,4 -4,-472 1359.5,-472 1359.5,4 -4,4"/>
<!-- [root] aws_iam_instance_profile.ec2_profile (expand) -->
<g id="node1" class="node">
<title>[root] aws_iam_instance_profile.ec2_profile (expand)</title>
<polygon fill="none" stroke="black" points="524.5,-252 300.5,-252 300.5,-216 524.5,-216 524.5,-252"/>
<text text-anchor="middle" x="412.5" y="-230.3" font-family="Times,serif" font-size="14.00">aws_iam_instance_profile.ec2_profile</text>
</g>
<!-- [root] aws_iam_role.instance&#45;role (expand) -->
<g id="node2" class="node">
<title>[root] aws_iam_role.instance&#45;role (expand)</title>
<polygon fill="none" stroke="black" points="496,-180 329,-180 329,-144 496,-144 496,-180"/>
<text text-anchor="middle" x="412.5" y="-158.3" font-family="Times,serif" font-size="14.00">aws_iam_role.instance&#45;role</text>
</g>
<!-- [root] aws_iam_instance_profile.ec2_profile (expand)&#45;&gt;[root] aws_iam_role.instance&#45;role (expand) -->
<g id="edge1" class="edge">
<title>[root] aws_iam_instance_profile.ec2_profile (expand)&#45;&gt;[root] aws_iam_role.instance&#45;role (expand)</title>
<path fill="none" stroke="black" d="M412.5,-215.7C412.5,-207.98 412.5,-198.71 412.5,-190.11"/>
<polygon fill="black" stroke="black" points="416,-190.1 412.5,-180.1 409,-190.1 416,-190.1"/>
</g>
<!-- [root] provider[&quot;registry.terraform.io/hashicorp/aws&quot;] -->
<g id="node14" class="node">
<title>[root] provider[&quot;registry.terraform.io/hashicorp/aws&quot;]</title>
<polygon fill="none" stroke="black" points="704.5,-108 451.96,-90 704.5,-72 957.04,-90 704.5,-108"/>
<text text-anchor="middle" x="704.5" y="-86.3" font-family="Times,serif" font-size="14.00">provider[&quot;registry.terraform.io/hashicorp/aws&quot;]</text>
</g>
<!-- [root] aws_iam_role.instance&#45;role (expand)&#45;&gt;[root] provider[&quot;registry.terraform.io/hashicorp/aws&quot;] -->
<g id="edge2" class="edge">
<title>[root] aws_iam_role.instance&#45;role (expand)&#45;&gt;[root] provider[&quot;registry.terraform.io/hashicorp/aws&quot;]</title>
<path fill="none" stroke="black" d="M483.56,-143.97C531.21,-132.54 593.48,-117.61 639.76,-106.52"/>
<polygon fill="black" stroke="black" points="640.77,-109.88 649.68,-104.14 639.14,-103.07 640.77,-109.88"/>
</g>
<!-- [root] aws_iam_role.service&#45;role (expand) -->
<g id="node3" class="node">
<title>[root] aws_iam_role.service&#45;role (expand)</title>
<polygon fill="none" stroke="black" points="780,-252 619,-252 619,-216 780,-216 780,-252"/>
<text text-anchor="middle" x="699.5" y="-230.3" font-family="Times,serif" font-size="14.00">aws_iam_role.service&#45;role</text>
</g>
<!-- [root] aws_iam_role.service&#45;role (expand)&#45;&gt;[root] provider[&quot;registry.terraform.io/hashicorp/aws&quot;] -->
<g id="edge3" class="edge">
<title>[root] aws_iam_role.service&#45;role (expand)&#45;&gt;[root] provider[&quot;registry.terraform.io/hashicorp/aws&quot;]</title>
<path fill="none" stroke="black" d="M700.1,-215.87C700.96,-191.67 702.52,-147.21 703.54,-118.39"/>
<polygon fill="black" stroke="black" points="707.04,-118.31 703.89,-108.19 700.04,-118.06 707.04,-118.31"/>
</g>
<!-- [root] aws_instance.api (expand) -->
<g id="node4" class="node">
<title>[root] aws_instance.api (expand)</title>
<polygon fill="none" stroke="black" points="467,-324 358,-324 358,-288 467,-288 467,-324"/>
<text text-anchor="middle" x="412.5" y="-302.3" font-family="Times,serif" font-size="14.00">aws_instance.api</text>
</g>
<!-- [root] aws_instance.api (expand)&#45;&gt;[root] aws_iam_instance_profile.ec2_profile (expand) -->
<g id="edge4" class="edge">
<title>[root] aws_instance.api (expand)&#45;&gt;[root] aws_iam_instance_profile.ec2_profile (expand)</title>
<path fill="none" stroke="black" d="M412.5,-287.7C412.5,-279.98 412.5,-270.71 412.5,-262.11"/>
<polygon fill="black" stroke="black" points="416,-262.1 412.5,-252.1 409,-262.1 416,-262.1"/>
</g>
<!-- [root] aws_security_group.api&#45;sg (expand) -->
<g id="node5" class="node">
<title>[root] aws_security_group.api&#45;sg (expand)</title>
<polygon fill="none" stroke="black" points="676.5,-180 514.5,-180 514.5,-144 676.5,-144 676.5,-180"/>
<text text-anchor="middle" x="595.5" y="-158.3" font-family="Times,serif" font-size="14.00">aws_security_group.api&#45;sg</text>
</g>
<!-- [root] aws_instance.api (expand)&#45;&gt;[root] aws_security_group.api&#45;sg (expand) -->
<g id="edge5" class="edge">
<title>[root] aws_instance.api (expand)&#45;&gt;[root] aws_security_group.api&#45;sg (expand)</title>
<path fill="none" stroke="black" d="M467.26,-288.34C489.38,-279.83 514.18,-267.87 533.5,-252 554.51,-234.74 571.54,-208.65 582.4,-189.17"/>
<polygon fill="black" stroke="black" points="585.57,-190.67 587.22,-180.2 579.4,-187.35 585.57,-190.67"/>
</g>
<!-- [root] aws_security_group.api&#45;sg (expand)&#45;&gt;[root] provider[&quot;registry.terraform.io/hashicorp/aws&quot;] -->
<g id="edge6" class="edge">
<title>[root] aws_security_group.api&#45;sg (expand)&#45;&gt;[root] provider[&quot;registry.terraform.io/hashicorp/aws&quot;]</title>
<path fill="none" stroke="black" d="M622.16,-143.88C637.16,-134.25 656,-122.15 671.87,-111.95"/>
<polygon fill="black" stroke="black" points="673.82,-114.86 680.34,-106.51 670.04,-108.97 673.82,-114.86"/>
</g>
<!-- [root] aws_vpc.public_vpc (expand) -->
<g id="node6" class="node">
<title>[root] aws_vpc.public_vpc (expand)</title>
<polygon fill="none" stroke="black" points="868.5,-180 740.5,-180 740.5,-144 868.5,-144 868.5,-180"/>
<text text-anchor="middle" x="804.5" y="-158.3" font-family="Times,serif" font-size="14.00">aws_vpc.public_vpc</text>
</g>
<!-- [root] aws_vpc.public_vpc (expand)&#45;&gt;[root] provider[&quot;registry.terraform.io/hashicorp/aws&quot;] -->
<g id="edge7" class="edge">
<title>[root] aws_vpc.public_vpc (expand)&#45;&gt;[root] provider[&quot;registry.terraform.io/hashicorp/aws&quot;]</title>
<path fill="none" stroke="black" d="M780.04,-143.88C766.53,-134.42 749.63,-122.59 735.25,-112.52"/>
<polygon fill="black" stroke="black" points="736.86,-109.38 726.66,-106.51 732.85,-115.12 736.86,-109.38"/>
</g>
<!-- [root] data.aws_caller_identity.current (expand) -->
<g id="node7" class="node">
<title>[root] data.aws_caller_identity.current (expand)</title>
<polygon fill="none" stroke="black" points="1133.5,-324 943.5,-324 943.5,-288 1133.5,-288 1133.5,-324"/>
<text text-anchor="middle" x="1038.5" y="-302.3" font-family="Times,serif" font-size="14.00">data.aws_caller_identity.current</text>
</g>
<!-- [root] data.aws_caller_identity.current (expand)&#45;&gt;[root] provider[&quot;registry.terraform.io/hashicorp/aws&quot;] -->
<g id="edge8" class="edge">
<title>[root] data.aws_caller_identity.current (expand)&#45;&gt;[root] provider[&quot;registry.terraform.io/hashicorp/aws&quot;]</title>
<path fill="none" stroke="black" d="M1026.12,-287.94C1001.49,-255.23 943.05,-183.41 877.5,-144 848.11,-126.33 812.32,-114.09 780.93,-105.86"/>
<polygon fill="black" stroke="black" points="781.47,-102.39 770.91,-103.33 779.75,-109.17 781.47,-102.39"/>
</g>
<!-- [root] output.account_id -->
<g id="node8" class="node">
<title>[root] output.account_id</title>
<polygon fill="none" stroke="black" points="1089.5,-396 981.5,-396 981.5,-360 1095.5,-360 1095.5,-390 1089.5,-396"/>
<polyline fill="none" stroke="black" points="1089.5,-396 1089.5,-390 "/>
<polyline fill="none" stroke="black" points="1095.5,-390 1089.5,-390 "/>
<text text-anchor="middle" x="1038.5" y="-374.3" font-family="Times,serif" font-size="14.00">output.account_id</text>
</g>
<!-- [root] output.account_id&#45;&gt;[root] data.aws_caller_identity.current (expand) -->
<g id="edge9" class="edge">
<title>[root] output.account_id&#45;&gt;[root] data.aws_caller_identity.current (expand)</title>
<path fill="none" stroke="black" d="M1038.5,-359.7C1038.5,-351.98 1038.5,-342.71 1038.5,-334.11"/>
<polygon fill="black" stroke="black" points="1042,-334.1 1038.5,-324.1 1035,-334.1 1042,-334.1"/>
</g>
<!-- [root] output.caller_arn -->
<g id="node9" class="node">
<title>[root] output.caller_arn</title>
<polygon fill="none" stroke="black" points="1217,-396 1114,-396 1114,-360 1223,-360 1223,-390 1217,-396"/>
<polyline fill="none" stroke="black" points="1217,-396 1217,-390 "/>
<polyline fill="none" stroke="black" points="1223,-390 1217,-390 "/>
<text text-anchor="middle" x="1168.5" y="-374.3" font-family="Times,serif" font-size="14.00">output.caller_arn</text>
</g>
<!-- [root] output.caller_arn&#45;&gt;[root] data.aws_caller_identity.current (expand) -->
<g id="edge10" class="edge">
<title>[root] output.caller_arn&#45;&gt;[root] data.aws_caller_identity.current (expand)</title>
<path fill="none" stroke="black" d="M1136.7,-359.88C1119.39,-350.55 1097.78,-338.92 1079.24,-328.94"/>
<polygon fill="black" stroke="black" points="1080.89,-325.85 1070.42,-324.19 1077.57,-332.01 1080.89,-325.85"/>
</g>
<!-- [root] output.caller_user -->
<g id="node10" class="node">
<title>[root] output.caller_user</title>
<polygon fill="none" stroke="black" points="1349.5,-396 1241.5,-396 1241.5,-360 1355.5,-360 1355.5,-390 1349.5,-396"/>
<polyline fill="none" stroke="black" points="1349.5,-396 1349.5,-390 "/>
<polyline fill="none" stroke="black" points="1355.5,-390 1349.5,-390 "/>
<text text-anchor="middle" x="1298.5" y="-374.3" font-family="Times,serif" font-size="14.00">output.caller_user</text>
</g>
<!-- [root] output.caller_user&#45;&gt;[root] data.aws_caller_identity.current (expand) -->
<g id="edge11" class="edge">
<title>[root] output.caller_user&#45;&gt;[root] data.aws_caller_identity.current (expand)</title>
<path fill="none" stroke="black" d="M1241.44,-361.64C1203.25,-351.35 1152.63,-337.73 1111.5,-326.65"/>
<polygon fill="black" stroke="black" points="1112.37,-323.26 1101.81,-324.04 1110.55,-330.02 1112.37,-323.26"/>
</g>
<!-- [root] output.instance_aplication_url -->
<g id="node11" class="node">
<title>[root] output.instance_aplication_url</title>
<polygon fill="none" stroke="black" points="175,-396 0,-396 0,-360 181,-360 181,-390 175,-396"/>
<polyline fill="none" stroke="black" points="175,-396 175,-390 "/>
<polyline fill="none" stroke="black" points="181,-390 175,-390 "/>
<text text-anchor="middle" x="90.5" y="-374.3" font-family="Times,serif" font-size="14.00">output.instance_aplication_url</text>
</g>
<!-- [root] output.instance_aplication_url&#45;&gt;[root] aws_instance.api (expand) -->
<g id="edge12" class="edge">
<title>[root] output.instance_aplication_url&#45;&gt;[root] aws_instance.api (expand)</title>
<path fill="none" stroke="black" d="M168.86,-359.97C223.66,-348.05 295.98,-332.33 347.57,-321.12"/>
<polygon fill="black" stroke="black" points="348.57,-324.48 357.6,-318.94 347.08,-317.64 348.57,-324.48"/>
</g>
<!-- [root] output.instance_id -->
<g id="node12" class="node">
<title>[root] output.instance_id</title>
<polygon fill="none" stroke="black" points="309.5,-396 199.5,-396 199.5,-360 315.5,-360 315.5,-390 309.5,-396"/>
<polyline fill="none" stroke="black" points="309.5,-396 309.5,-390 "/>
<polyline fill="none" stroke="black" points="315.5,-390 309.5,-390 "/>
<text text-anchor="middle" x="257.5" y="-374.3" font-family="Times,serif" font-size="14.00">output.instance_id</text>
</g>
<!-- [root] output.instance_id&#45;&gt;[root] aws_instance.api (expand) -->
<g id="edge13" class="edge">
<title>[root] output.instance_id&#45;&gt;[root] aws_instance.api (expand)</title>
<path fill="none" stroke="black" d="M295.42,-359.88C316.51,-350.35 342.96,-338.41 365.37,-328.28"/>
<polygon fill="black" stroke="black" points="367.03,-331.37 374.71,-324.07 364.15,-324.99 367.03,-331.37"/>
</g>
<!-- [root] output.instance_public_ip -->
<g id="node13" class="node">
<title>[root] output.instance_public_ip</title>
<polygon fill="none" stroke="black" points="485,-396 334,-396 334,-360 491,-360 491,-390 485,-396"/>
<polyline fill="none" stroke="black" points="485,-396 485,-390 "/>
<polyline fill="none" stroke="black" points="491,-390 485,-390 "/>
<text text-anchor="middle" x="412.5" y="-374.3" font-family="Times,serif" font-size="14.00">output.instance_public_ip</text>
</g>
<!-- [root] output.instance_public_ip&#45;&gt;[root] aws_instance.api (expand) -->
<g id="edge14" class="edge">
<title>[root] output.instance_public_ip&#45;&gt;[root] aws_instance.api (expand)</title>
<path fill="none" stroke="black" d="M412.5,-359.7C412.5,-351.98 412.5,-342.71 412.5,-334.11"/>
<polygon fill="black" stroke="black" points="416,-334.1 412.5,-324.1 409,-334.1 416,-334.1"/>
</g>
<!-- [root] var.profile_name -->
<g id="node15" class="node">
<title>[root] var.profile_name</title>
<polygon fill="none" stroke="black" points="699.5,-36 595.5,-36 595.5,0 705.5,0 705.5,-30 699.5,-36"/>
<polyline fill="none" stroke="black" points="699.5,-36 699.5,-30 "/>
<polyline fill="none" stroke="black" points="705.5,-30 699.5,-30 "/>
<text text-anchor="middle" x="650.5" y="-14.3" font-family="Times,serif" font-size="14.00">var.profile_name</text>
</g>
<!-- [root] provider[&quot;registry.terraform.io/hashicorp/aws&quot;]&#45;&gt;[root] var.profile_name -->
<g id="edge19" class="edge">
<title>[root] provider[&quot;registry.terraform.io/hashicorp/aws&quot;]&#45;&gt;[root] var.profile_name</title>
<path fill="none" stroke="black" d="M691.98,-72.76C685.42,-64.27 677.25,-53.68 669.9,-44.15"/>
<polygon fill="black" stroke="black" points="672.59,-41.9 663.71,-36.12 667.05,-46.18 672.59,-41.9"/>
</g>
<!-- [root] var.region -->
<g id="node16" class="node">
<title>[root] var.region</title>
<polygon fill="none" stroke="black" points="789,-36 724,-36 724,0 795,0 795,-30 789,-36"/>
<polyline fill="none" stroke="black" points="789,-36 789,-30 "/>
<polyline fill="none" stroke="black" points="795,-30 789,-30 "/>
<text text-anchor="middle" x="759.5" y="-14.3" font-family="Times,serif" font-size="14.00">var.region</text>
</g>
<!-- [root] provider[&quot;registry.terraform.io/hashicorp/aws&quot;]&#45;&gt;[root] var.region -->
<g id="edge20" class="edge">
<title>[root] provider[&quot;registry.terraform.io/hashicorp/aws&quot;]&#45;&gt;[root] var.region</title>
<path fill="none" stroke="black" d="M717.26,-72.76C723.93,-64.27 732.25,-53.68 739.74,-44.15"/>
<polygon fill="black" stroke="black" points="742.62,-46.15 746.05,-36.12 737.12,-41.82 742.62,-46.15"/>
</g>
<!-- [root] provider[&quot;registry.terraform.io/hashicorp/aws&quot;] (close) -->
<g id="node17" class="node">
<title>[root] provider[&quot;registry.terraform.io/hashicorp/aws&quot;] (close)</title>
<ellipse fill="none" stroke="black" cx="736.5" cy="-378" rx="227.46" ry="18"/>
<text text-anchor="middle" x="736.5" y="-374.3" font-family="Times,serif" font-size="14.00">[root] provider[&quot;registry.terraform.io/hashicorp/aws&quot;] (close)</text>
</g>
<!-- [root] provider[&quot;registry.terraform.io/hashicorp/aws&quot;] (close)&#45;&gt;[root] aws_iam_role.service&#45;role (expand) -->
<g id="edge15" class="edge">
<title>[root] provider[&quot;registry.terraform.io/hashicorp/aws&quot;] (close)&#45;&gt;[root] aws_iam_role.service&#45;role (expand)</title>
<path fill="none" stroke="black" d="M732.04,-359.87C725.7,-335.56 714.04,-290.82 706.54,-262.01"/>
<polygon fill="black" stroke="black" points="709.89,-260.98 703.98,-252.19 703.11,-262.75 709.89,-260.98"/>
</g>
<!-- [root] provider[&quot;registry.terraform.io/hashicorp/aws&quot;] (close)&#45;&gt;[root] aws_instance.api (expand) -->
<g id="edge16" class="edge">
<title>[root] provider[&quot;registry.terraform.io/hashicorp/aws&quot;] (close)&#45;&gt;[root] aws_instance.api (expand)</title>
<path fill="none" stroke="black" d="M662.17,-360.94C606.27,-348.86 530.43,-332.48 477.06,-320.95"/>
<polygon fill="black" stroke="black" points="477.54,-317.47 467.03,-318.78 476.06,-324.31 477.54,-317.47"/>
</g>
<!-- [root] provider[&quot;registry.terraform.io/hashicorp/aws&quot;] (close)&#45;&gt;[root] aws_vpc.public_vpc (expand) -->
<g id="edge17" class="edge">
<title>[root] provider[&quot;registry.terraform.io/hashicorp/aws&quot;] (close)&#45;&gt;[root] aws_vpc.public_vpc (expand)</title>
<path fill="none" stroke="black" d="M745.14,-359.64C756.63,-335.89 776.83,-291.69 788.5,-252 794.47,-231.7 798.59,-208.1 801.15,-190.31"/>
<polygon fill="black" stroke="black" points="804.63,-190.7 802.52,-180.32 797.7,-189.75 804.63,-190.7"/>
</g>
<!-- [root] provider[&quot;registry.terraform.io/hashicorp/aws&quot;] (close)&#45;&gt;[root] data.aws_caller_identity.current (expand) -->
<g id="edge18" class="edge">
<title>[root] provider[&quot;registry.terraform.io/hashicorp/aws&quot;] (close)&#45;&gt;[root] data.aws_caller_identity.current (expand)</title>
<path fill="none" stroke="black" d="M806.16,-360.85C850.56,-350.56 908.33,-337.17 955.16,-326.32"/>
<polygon fill="black" stroke="black" points="956.02,-329.71 964.97,-324.04 954.44,-322.89 956.02,-329.71"/>
</g>
<!-- [root] root -->
<g id="node18" class="node">
<title>[root] root</title>
<ellipse fill="none" stroke="black" cx="736.5" cy="-450" rx="47.39" ry="18"/>
<text text-anchor="middle" x="736.5" y="-446.3" font-family="Times,serif" font-size="14.00">[root] root</text>
</g>
<!-- [root] root&#45;&gt;[root] output.account_id -->
<g id="edge21" class="edge">
<title>[root] root&#45;&gt;[root] output.account_id</title>
<path fill="none" stroke="black" d="M776.68,-440.38C821.69,-430.63 897.08,-414.03 971.3,-396.25"/>
<polygon fill="black" stroke="black" points="972.39,-399.59 981.29,-393.85 970.75,-392.79 972.39,-399.59"/>
</g>
<!-- [root] root&#45;&gt;[root] output.caller_arn -->
<g id="edge22" class="edge">
<title>[root] root&#45;&gt;[root] output.caller_arn</title>
<path fill="none" stroke="black" d="M781.54,-444.23C849.36,-436.67 981.86,-420.44 1103.9,-395.99"/>
<polygon fill="black" stroke="black" points="1104.68,-399.4 1113.79,-393.98 1103.29,-392.54 1104.68,-399.4"/>
</g>
<!-- [root] root&#45;&gt;[root] output.caller_user -->
<g id="edge23" class="edge">
<title>[root] root&#45;&gt;[root] output.caller_user</title>
<path fill="none" stroke="black" d="M782.98,-446.3C869.5,-440.78 1061.2,-426.26 1231.48,-396.03"/>
<polygon fill="black" stroke="black" points="1232.15,-399.47 1241.38,-394.26 1230.91,-392.58 1232.15,-399.47"/>
</g>
<!-- [root] root&#45;&gt;[root] output.instance_aplication_url -->
<g id="edge24" class="edge">
<title>[root] root&#45;&gt;[root] output.instance_aplication_url</title>
<path fill="none" stroke="black" d="M690.35,-445.64C597.77,-438.66 382.57,-421.22 191.17,-396.03"/>
<polygon fill="black" stroke="black" points="191.58,-392.56 181.21,-394.71 190.66,-399.5 191.58,-392.56"/>
</g>
<!-- [root] root&#45;&gt;[root] output.instance_id -->
<g id="edge25" class="edge">
<title>[root] root&#45;&gt;[root] output.instance_id</title>
<path fill="none" stroke="black" d="M690.8,-444.94C616.27,-437.92 463.81,-421.91 325.45,-396.05"/>
<polygon fill="black" stroke="black" points="325.99,-392.59 315.51,-394.17 324.68,-399.47 325.99,-392.59"/>
</g>
<!-- [root] root&#45;&gt;[root] output.instance_public_ip -->
<g id="edge26" class="edge">
<title>[root] root&#45;&gt;[root] output.instance_public_ip</title>
<path fill="none" stroke="black" d="M696.45,-440.35C647.99,-429.88 564.99,-411.95 501.2,-398.16"/>
<polygon fill="black" stroke="black" points="501.65,-394.68 491.14,-395.99 500.17,-401.52 501.65,-394.68"/>
</g>
<!-- [root] root&#45;&gt;[root] provider[&quot;registry.terraform.io/hashicorp/aws&quot;] (close) -->
<g id="edge27" class="edge">
<title>[root] root&#45;&gt;[root] provider[&quot;registry.terraform.io/hashicorp/aws&quot;] (close)</title>
<path fill="none" stroke="black" d="M736.5,-431.7C736.5,-423.98 736.5,-414.71 736.5,-406.11"/>
<polygon fill="black" stroke="black" points="740,-406.1 736.5,-396.1 733,-406.1 740,-406.1"/>
</g>
</g>
</svg>
